HIERARCHY
ROOT Hips
{
	OFFSET	0.00	0.00	0.00
	CHANNELS 6 Xposition Yposition Zposition Zrotation Xrotation Yrotation
	JOINT LeftUpLeg
	{
		OFFSET	 0.126116	-0.014019	-0.065224
		CHANNELS 3 Zrotation Xrotation Yrotation
		JOINT LeftLeg
		{
			OFFSET	 0.000000	 0.000000	 0.569914
			CHANNELS 3 Zrotation Xrotation Yrotation
			JOINT LeftFoot
			{
				OFFSET	 0.000000	 0.000000	 0.544423
				CHANNELS 3 Zrotation Xrotation Yrotation
				JOINT LeftToeBase
				{
					OFFSET	 0.000000	 0.000000	 0.207117
					CHANNELS 3 Zrotation Xrotation Yrotation
					End Site
					{
						OFFSET	 0.000000	 0.000000	 0.207117
					}
				}
			}
		}
	}
	JOINT RightUpLeg
	{
		OFFSET	-0.124023	-0.008373	-0.065224
		CHANNELS 3 Zrotation Xrotation Yrotation
		JOINT RightLeg
		{
			OFFSET	 0.000000	 0.000000	 0.570047
			CHANNELS 3 Zrotation Xrotation Yrotation
			JOINT RightFoot
			{
				OFFSET	 0.000000	 0.000000	 0.544354
				CHANNELS 3 Zrotation Xrotation Yrotation
				JOINT RightToeBase
				{
					OFFSET	 0.000000	 0.000000	 0.207540
					CHANNELS 3 Zrotation Xrotation Yrotation
					End Site
					{
						OFFSET	 0.000000	 0.000000	 0.207540
					}
				}
			}
		}
	}
	JOINT Spine
	{
		OFFSET	 0.000184	-0.007763	 0.117403
		CHANNELS 3 Zrotation Xrotation Yrotation
		JOINT Spine1
		{
			OFFSET	 0.000000	 0.000000	 0.137269
			CHANNELS 3 Zrotation Xrotation Yrotation
			JOINT Spine2
			{
				OFFSET	 0.000000	 0.000000	 0.156879
				CHANNELS 3 Zrotation Xrotation Yrotation
				JOINT LeftShoulder
				{
					OFFSET	 0.080501	-0.002496	 0.160144
					CHANNELS 3 Zrotation Xrotation Yrotation
					JOINT LeftArm
					{
						OFFSET	 0.000000	 0.000000	 0.164363
						CHANNELS 3 Zrotation Xrotation Yrotation
						JOINT LeftForeArm
						{
							OFFSET	 0.000000	 0.000000	 0.364576
							CHANNELS 3 Zrotation Xrotation Yrotation
							JOINT LeftHand
							{
								OFFSET	 0.000000	 0.000000	 0.360812
								CHANNELS 3 Zrotation Xrotation Yrotation
								JOINT LeftHandIndex1
								{
									OFFSET	 0.000000	 0.000000	 0.086006
									CHANNELS 3 Zrotation Xrotation Yrotation
									JOINT LeftHandIndex2
									{
										OFFSET	 0.000000	 0.000000	 0.047236
										CHANNELS 3 Zrotation Xrotation Yrotation
										JOINT LeftHandIndex3
										{
											OFFSET	-0.004284	-0.000551	 0.038166
											CHANNELS 3 Zrotation Xrotation Yrotation
											End Site
											{
												OFFSET	-0.004284	-0.000551	 0.038166
											}
										}
									}
								}
							}
						}
					}
				}
				JOINT Neck
				{
					OFFSET	 0.000000	 0.000000	 0.176489
					CHANNELS 3 Zrotation Xrotation Yrotation
					JOINT Head
					{
						OFFSET	 0.000000	-0.001747	 0.077940
						CHANNELS 3 Zrotation Xrotation Yrotation
						End Site
						{
							OFFSET	 0.000000	-0.001747	 0.077940
						}
					}
				}
				JOINT RightShoulder
				{
					OFFSET	-0.080363	 0.000306	 0.159706
					CHANNELS 3 Zrotation Xrotation Yrotation
					JOINT RightArm
					{
						OFFSET	 0.000000	 0.000000	 0.164196
						CHANNELS 3 Zrotation Xrotation Yrotation
						JOINT RightForeArm
						{
							OFFSET	 0.000000	 0.000000	 0.365611
							CHANNELS 3 Zrotation Xrotation Yrotation
							JOINT RightHand
							{
								OFFSET	 0.000000	 0.000000	 0.360648
								CHANNELS 3 Zrotation Xrotation Yrotation
								JOINT RightHandIndex1
								{
									OFFSET	 0.000000	 0.000000	 0.069977
									CHANNELS 3 Zrotation Xrotation Yrotation
									JOINT RightHandIndex2
									{
										OFFSET	 0.000000	 0.000000	 0.052305
										CHANNELS 3 Zrotation Xrotation Yrotation
										JOINT RightHandIndex3
										{
											OFFSET	 0.009002	-0.000782	 0.042196
											CHANNELS 3 Zrotation Xrotation Yrotation
											End Site
											{
												OFFSET	 0.009002	-0.000782	 0.042196
											}
										}
									}
								}
							}
						}
					}
				}
			}
		}
	}
}
MOTION
Frames:    13
Frame Time: 0.03333334
-0.035734	 0.290825	 0.958002	-0.211521	 34.508490	-5.652295	 178.010600	-88.849370	-4.736011	 12.947300	-80.514180	 13.187540	-23.501090	 85.826230	 24.532700	-2.385832	 28.452790	-0.000001	 113.525900	-78.672880	-73.111400	-29.103960	-81.938710	-23.747250	 53.730090	 82.237770	-43.908000	 2.384659	 28.388700	-0.000001	-3.981386	 15.291100	 2.454238	-3.601826	 22.242330	 5.838604	 4.164321	-1.104324	 0.328750	-99.123470	 68.196860	 156.918200	 9.915505	-6.002892	-39.239520	-5.720119	 9.916460	-30.608100	-23.360960	-18.147630	-17.888020	-2.027600	 6.559038	 9.033609	-5.188889	 0.308190	 3.541030	-5.234859	 0.342567	 0.430617	 0.261817	 17.091500	-5.771439	 6.558928	-26.294560	 2.178392	 97.416990	 64.628760	-159.197200	-2.431811	 4.023385	 47.466620	-6.708063	 0.555660	 30.494750	 7.642516	-16.972940	 13.697430	 1.803333	 3.979147	-15.098590	 4.898592	 3.004813	-9.310344	 5.224449	 0.395017	 2.014677
-0.035543	 0.289852	 0.963088	-0.284025	 34.014120	-5.415693	-136.226700	-89.771860	 41.085480	 11.818960	-79.947730	 12.053210	-23.993270	 85.701310	 25.056350	-2.385832	 28.452790	-0.000001	 108.830700	-79.215060	-77.773550	-27.708360	-81.342670	-22.330390	 52.831770	 82.219820	-42.943430	 2.384659	 28.388700	-0.000001	-3.923921	 15.317950	 2.382590	-3.507699	 22.685500	 5.670512	 4.137032	-1.809438	 0.264691	-98.950390	 68.297680	 157.298600	 9.724595	-4.959178	-39.581310	-5.518251	 9.936959	-30.992290	-23.679090	-18.327750	-18.171680	-2.027600	 6.559038	 9.033609	-5.188889	 0.308190	 3.541030	-5.234859	 0.342567	 0.430617	-0.041881	 15.123130	-5.051370	 6.221386	-24.485370	 1.570587	 97.308870	 64.507670	-159.581800	-2.826645	 3.910027	 47.650950	-6.445721	 0.716880	 30.727550	 7.699204	-17.078310	 14.329440	 1.803333	 3.979147	-15.098590	 4.898592	 3.004813	-9.310344	 5.224449	 0.395017	 2.014677
-0.035284	 0.288672	 0.969579	-0.302044	 33.410510	-5.192561	-20.530610	-88.862020	 156.935300	 10.779440	-79.173220	 11.001600	-24.093610	 85.469610	 25.112400	-2.385832	 28.452790	-0.000001	 102.273600	-79.756480	-84.223870	-26.176890	-80.580280	-20.771380	 51.409620	 82.174840	-41.464520	 2.384659	 28.388700	-0.000001	-3.864774	 15.362640	 2.319323	-3.363393	 23.132260	 5.442774	 4.069879	-2.509073	 0.184630	-98.658380	 68.596330	 157.756400	 9.503238	-3.575203	-40.144280	-5.262487	 9.937588	-31.424220	-24.068380	-18.595480	-18.603470	-2.027600	 6.559038	 9.033609	-5.188889	 0.308190	 3.541030	-5.234859	 0.342567	 0.430617	-0.345152	 12.570050	-4.430266	 5.900671	-22.010560	 1.001492	 97.158540	 64.264500	-160.184800	-3.282238	 3.583947	 47.961320	-6.190420	 0.881258	 31.088680	 7.576425	-17.045120	 15.048150	 1.803333	 3.979147	-15.098590	 4.898592	 3.004813	-9.310344	 5.224449	 0.395017	 2.014677
-0.034851	 0.287610	 0.975992	-0.309776	 32.819760	-4.996358	-14.701390	-87.645410	 162.922800	 9.895789	-78.388500	 10.105680	-23.957780	 85.241360	 24.939710	-2.385832	 28.452790	-0.000001	 95.164970	-80.115590	-91.217310	-24.870020	-79.814050	-19.436350	 50.104670	 82.122960	-40.094790	 2.384659	 28.388700	-0.000001	-3.816450	 15.389800	 2.254838	-3.227404	 23.456100	 5.232197	 3.993214	-3.107420	 0.110221	-98.379390	 68.900450	 158.175300	 9.431510	-2.217196	-40.614150	-5.026774	 9.934862	-31.822250	-24.420640	-18.849100	-19.025230	-2.027600	 6.559038	 9.033609	-5.188889	 0.308190	 3.541030	-5.234859	 0.342567	 0.430617	-0.591479	 10.208190	-3.879167	 5.627275	-19.718050	 0.494487	 97.016090	 64.074780	-160.711700	-3.753875	 3.389467	 48.121890	-5.991513	 1.018563	 31.524490	 7.471395	-16.993470	 15.672410	 1.803333	 3.979147	-15.098590	 4.898592	 3.004813	-9.310344	 5.224449	 0.395017	 2.014677
-0.034276	 0.286716	 0.982591	-0.343727	 32.142850	-4.761604	-12.509840	-86.328480	 165.247400	 9.129207	-77.580940	 9.326361	-23.714500	 85.035050	 24.642580	-2.385832	 28.452790	-0.000001	 86.975750	-80.323520	-99.306050	-23.812590	-79.006050	-18.346860	 49.121780	 82.071030	-39.045910	 2.384659	 28.388700	-0.000001	-3.827100	 15.441890	 2.193990	-3.142478	 23.765090	 5.055858	 3.910168	-3.817633	 0.025647	-97.933680	 69.533300	 158.624200	 9.628348	-0.535316	-41.219990	-4.780222	 9.877357	-32.106520	-24.823020	-19.124770	-19.689780	-2.027600	 6.559038	 9.033609	-5.188889	 0.308190	 3.541030	-5.234859	 0.342567	 0.430617	-0.788104	 7.365822	-3.275694	 5.304753	-17.008530	-0.146264	 96.841930	 64.196600	-161.047500	-4.322013	 3.794527	 48.129980	-6.071037	 0.987503	 31.988670	 7.292186	-16.884630	 16.082060	 1.803333	 3.979147	-15.098590	 4.898592	 3.004813	-9.310344	 5.224449	 0.395017	 2.014677
-0.033439	 0.285876	 0.990086	-0.368942	 31.426550	-4.533720	-10.964240	-84.890940	 166.948300	 8.369272	-76.628460	 8.551208	-23.139780	 84.779070	 24.014460	-2.385833	 28.452760	 0.000004	 77.817990	-80.280460	-108.339300	-22.713900	-78.065690	-17.210560	 47.956550	 81.991530	-37.799130	 2.384659	 28.388700	-0.000001	-3.844948	 15.462740	 2.126224	-3.057410	 24.000540	 4.875477	 3.811898	-4.495826	-0.061506	-97.487330	 70.170290	 159.072800	 9.990703	 1.239677	-41.759220	-4.529883	 9.823182	-32.413230	-25.218970	-19.411450	-20.362610	-2.027600	 6.559038	 9.033609	-5.188889	 0.308190	 3.541030	-5.234859	 0.342567	 0.430617	-0.954135	 4.517396	-2.684063	 5.016495	-14.292390	-0.758422	 96.668810	 64.318890	-161.388100	-4.963500	 4.255098	 48.002150	-6.152810	 0.956708	 32.544910	 7.115213	-16.772090	 16.491680	 1.803333	 3.979147	-15.098590	 4.898592	 3.004813	-9.310344	 5.224449	 0.395017	 2.014677
-0.032439	 0.285269	 0.998214	-0.390049	 30.647890	-4.276587	-9.987955	-83.340860	 168.076600	 7.826952	-75.562490	 7.986580	-22.330380	 84.508030	 23.101050	-2.385833	 28.452760	 0.000004	 68.200930	-79.970050	-117.817500	-21.776100	-77.003040	-16.226490	 46.824670	 81.893230	-36.547330	 2.384659	 28.388700	-0.000001	-3.871493	 15.518460	 2.046934	-2.966008	 24.227650	 4.654708	 3.716768	-5.208080	-0.110429	-96.827210	 71.231450	 159.499900	 10.525710	 3.376732	-42.600990	-4.270926	 9.734592	-32.652320	-25.680000	-19.736750	-21.016450	-2.027600	 6.559038	 9.033609	-5.188889	 0.308190	 3.541030	-5.234859	 0.342567	 0.430617	-1.092420	 1.538175	-2.369243	 4.818112	-11.425550	-1.146815	 96.337450	 64.866260	-161.787600	-5.641706	 5.241996	 48.085410	-6.310359	 0.874390	 33.096260	 7.052323	-16.910470	 16.866220	 1.803333	 3.979147	-15.098590	 4.898592	 3.004813	-9.310344	 5.224449	 0.395017	 2.014677
-0.031111	 0.284604	 1.008151	-0.399244	 29.698440	-3.963002	-9.181229	-81.447620	 169.058700	 7.372327	-74.229190	 7.499072	-21.198580	 84.179470	 21.817380	-2.385833	 28.452760	 0.000004	 57.524830	-79.236980	-128.319000	-20.853810	-75.663360	-15.241460	 45.485110	 81.761650	-35.021430	 2.384659	 28.388700	-0.000001	-3.904644	 15.588660	 1.942643	-2.852215	 24.452120	 4.374027	 3.604611	-6.035308	-0.140045	-95.879140	 72.773190	 159.939400	 11.315920	 6.107441	-43.795810	-3.965150	 9.611963	-32.894580	-26.250410	-20.146650	-21.753890	-2.027600	 6.559038	 9.033609	-5.188889	 0.308190	 3.541030	-5.234859	 0.342567	 0.430617	-1.238206	-1.964686	-2.225181	 4.652908	-8.037594	-1.418126	 95.838230	 65.819760	-162.290300	-6.474751	 6.785493	 48.319220	-6.547791	 0.739278	 33.808460	 7.054967	-17.273740	 17.265610	 1.803333	 3.979147	-15.098590	 4.898592	 3.004813	-9.310344	 5.224449	 0.395017	 2.014677
-0.029761	 0.283665	 1.017489	-0.370653	 28.810920	-3.686546	-8.635703	-79.654950	 169.787100	 7.045515	-72.959500	 7.137915	-20.046210	 83.865030	 20.527310	-2.385833	 28.452750	 0.000004	 48.970390	-78.229290	-136.702500	-19.799560	-74.408490	-14.136080	 44.274070	 81.643160	-33.696870	 2.384659	 28.388700	-0.000001	-3.935080	 15.609010	 1.832189	-2.750070	 24.603940	 4.110497	 3.494260	-6.773581	-0.156046	-94.991740	 74.149380	 160.306900	 12.180450	 8.487253	-44.848450	-3.673353	 9.511777	-33.178700	-26.684140	-20.511710	-22.417070	-2.027600	 6.559038	 9.033609	-5.188889	 0.308190	 3.541030	-5.234859	 0.342567	 0.430617	-1.361320	-5.186489	-2.182122	 4.520397	-4.932431	-1.607218	 95.386510	 66.693160	-162.745100	-7.307920	 8.199291	 48.464860	-6.750685	 0.622125	 34.626640	 7.046689	-17.608700	 17.573730	 1.803333	 3.979147	-15.098590	 4.898592	 3.004813	-9.310344	 5.224449	 0.395017	 2.014677
-0.028236	 0.282190	 1.027185	-0.275273	 27.870800	-3.400913	-8.336726	-77.752250	 170.317400	 6.867438	-71.632180	 6.916573	-18.648160	 83.536470	 18.962610	-2.385833	 28.452750	 0.000004	 41.544110	-76.904190	-143.945600	-18.053500	-73.146500	-12.370270	 43.405530	 81.548580	-32.947920	 2.384659	 28.388700	-0.000001	-3.980989	 15.600710	 1.683675	-2.663882	 24.745040	 3.805931	 3.386456	-7.568973	-0.132302	-94.059050	 75.513620	 160.684200	 13.285590	 10.603830	-45.926160	-3.342513	 9.416253	-33.562220	-26.923570	-20.842660	-23.074450	-2.027600	 6.559038	 9.033609	-5.188889	 0.308190	 3.541030	-5.234859	 0.342567	 0.430617	-1.489368	-8.687966	-2.365980	 4.403218	-1.585748	-1.676487	 94.913830	 67.625470	-163.209800	-8.282664	 9.643345	 48.604450	-6.927217	 0.519383	 35.641880	 7.033691	-17.949560	 17.748550	 1.803333	 3.979147	-15.098590	 4.898592	 3.004813	-9.310344	 5.224449	 0.395017	 2.014677
-0.026428	 0.280381	 1.037316	-0.155670	 26.955250	-3.113540	-8.029243	-75.816150	 170.859700	 6.682792	-70.221180	 6.684425	-17.045560	 83.184880	 17.215940	-2.385833	 28.452750	 0.000004	 35.515330	-75.347180	-149.787500	-16.518750	-71.770230	-10.815490	 42.643360	 81.406000	-32.278610	 2.384659	 28.388700	-0.000001	-4.028800	 15.511730	 1.508508	-2.585822	 24.822850	 3.509886	 3.271298	-8.310255	-0.112909	-93.103000	 76.836530	 160.989900	 14.467500	 12.639740	-46.868730	-2.999659	 9.356544	-34.085170	-27.146650	-21.173740	-23.711630	-2.027600	 6.559038	 9.033609	-5.188889	 0.308190	 3.541030	-5.234859	 0.342567	 0.430617	-1.625282	-12.065790	-2.555308	 4.285099	 1.640698	-1.729611	 94.458630	 68.527880	-163.661800	-9.312284	 11.073200	 48.660560	-7.096231	 0.416322	 36.853810	 7.010134	-18.287570	 17.914880	 1.803333	 3.979147	-15.098590	 4.898592	 3.004813	-9.310344	 5.224449	 0.395017	 2.014677
-0.023905	 0.277504	 1.049102	 0.188643	 26.136520	-2.866174	-7.680288	-73.791310	 171.560700	 6.389471	-68.510730	 6.359871	-14.203390	 82.761770	 14.275090	-2.385833	 28.452750	 0.000004	 30.496020	-73.506380	-154.483500	-14.808730	-70.136960	-9.097523	 42.001540	 81.112300	-31.732140	 2.384659	 28.388700	-0.000001	-4.024919	 15.087650	 1.128457	-2.589260	 24.779620	 3.146758	 3.167435	-9.077781	-0.155870	-93.242170	 76.552400	 161.800000	 15.617530	 13.597770	-46.424690	-2.505442	 9.435328	-35.344060	-26.840880	-21.293580	-24.379320	-2.027600	 6.559038	 9.033609	-5.188889	 0.308190	 3.541030	-5.234859	 0.342567	 0.430617	-1.667119	-13.441320	-2.097253	 4.149307	 2.971315	-2.048688	 94.153860	 69.029450	-164.112500	-10.395840	 12.379980	 48.027050	-7.285669	 0.290489	 38.447190	 6.847344	-18.446440	 18.005850	 1.803333	 3.979147	-15.098590	 4.898592	 3.004813	-9.310344	 5.224449	 0.395017	 2.014677
-0.021248	 0.273994	 1.061627	 0.597479	 25.331770	-2.639078	-7.084124	-71.675480	 172.525000	 6.189238	-66.638910	 6.028598	-11.427700	 82.283830	 11.422560	-2.385833	 28.452750	 0.000004	 26.338800	-71.465870	-158.285100	-13.228460	-68.336590	-7.518099	 41.267630	 80.759050	-31.094010	 2.384659	 28.388700	-0.000001	-3.990706	 14.504900	 0.711082	-2.613841	 24.660460	 2.786624	 3.058770	-9.841206	-0.233731	-93.669690	 75.754680	 162.712100	 16.720750	 14.200700	-45.448490	-1.945078	 9.565205	-36.954910	-26.372070	-21.338760	-25.055890	-2.027600	 6.559038	 9.033609	-5.188889	 0.308190	 3.541030	-5.234859	 0.342567	 0.430617	-1.668858	-14.182880	-1.430867	 4.006861	 3.704410	-2.453704	 93.900130	 69.403820	-164.567100	-11.488330	 13.648630	 47.133220	-7.475710	 0.148719	 40.221530	 6.637164	-18.549710	 18.070860	 1.803333	 3.979147	-15.098590	 4.898592	 3.004813	-9.310344	 5.224449	 0.395017	 2.014677
